<?xml version="1.0" encoding="iso-8859-1"?>
<!-- Uploaded to: SVG Repo, www.svgrepo.com, Generator: SVG Repo Mixer Tools -->
<!DOCTYPE svg PUBLIC "-//W3C//DTD SVG 1.1//EN" "http://www.w3.org/Graphics/SVG/1.1/DTD/svg11.dtd">
<svg fill="#000000" version="1.1" id="Capa_1" xmlns="http://www.w3.org/2000/svg" xmlns:xlink="http://www.w3.org/1999/xlink" 
	 width="800px" height="800px" viewBox="0 0 31.761 31.761"
	 xml:space="preserve">
<g>
	<g>
		<circle cx="25.23" cy="6.037" r="2.911"/>
		<path d="M27.522,10.531l-2.356,3.075l-2.274-3.135c-1.363,0.936-3.328,3.353-3.308,9.403c0.002,0.651,0.524,1.196,1.181,1.196
			h0.002c0.651,0,1.183-0.551,1.182-1.202c-0.005-1.763,0.055-3.142,0.45-4.193v3.81c0,0.551,0.178,1.062,0.396,1.5v9.558
			c0,0.647,0.556,1.183,1.205,1.183c0.647,0,1.84,0,2.488,0c0.651,0,1.207-0.548,1.207-1.197v-9.744
			c0.18-0.441,0.44-0.953,0.44-1.502V15.47c0.266,1.056,0.429,2.583,0.421,4.347c0,0.65,0.471,1.194,1.122,1.194l0,0
			c0.647,0,1.217-0.446,1.218-1.095C30.918,13.862,28.89,11.47,27.522,10.531z"/>
		<path d="M26.622,9.266l-0.688,0.288c-0.145-0.242-0.401-0.409-0.704-0.409c-0.304,0-0.562,0.165-0.702,0.404l-0.692-0.295
			c-0.1-0.044-0.217-0.033-0.309,0.026c-0.093,0.062-0.15,0.163-0.15,0.271v0.861c0,0.102,0.055,0.2,0.137,0.262
			c0.084,0.063,0.191,0.08,0.291,0.05c0.271-0.082,0.604-0.185,0.799-0.244c0.148,0.183,0.376,0.3,0.628,0.3
			c0.243,0,0.465-0.112,0.612-0.282c0.195,0.058,0.535,0.162,0.812,0.244c0.098,0.029,0.21,0.012,0.291-0.052
			c0.084-0.061,0.141-0.159,0.141-0.261V9.565c0-0.11-0.062-0.212-0.148-0.271C26.842,9.233,26.721,9.223,26.622,9.266z"/>
		<circle cx="6.683" cy="6.181" r="2.946"/>
		<path d="M14.382,12l-2.342,2.081l-2.92-3.591l-2.438,3.175L4.213,10.26c-1.38,0.949-3.366,3.373-3.349,9.494
			c0.003,0.659,0.537,1.188,1.194,1.188H2.06c0.662,0,1.217-0.531,1.216-1.191c-0.006-1.783,0.063-3.157,0.47-4.221v3.853
			c0,0.558,0.182,1.072,0.316,1.521v9.67c0,0.66,0.59,1.188,1.246,1.188c0.66,0,2.149,0,2.809,0c0.658,0,1.245-0.528,1.245-1.188
			V20.9c0.182-0.444,0.362-0.963,0.362-1.521v-4.437l1.278,1.614c0.207,0.254,0.491,0.406,0.816,0.437
			c0.031,0.003,0.058,0.005,0.088,0.005c0.291,0,0.571-0.105,0.79-0.303l3.273-2.909c0.493-0.438,0.534-1.192,0.099-1.685
			C15.628,11.607,14.875,11.562,14.382,12z"/>
		<path d="M8.128,9.447l-0.7,0.294c-0.141-0.246-0.403-0.414-0.71-0.414c-0.306,0-0.565,0.165-0.712,0.409l-0.698-0.3
			C5.207,9.393,5.083,9.402,4.989,9.464C4.896,9.525,4.834,9.628,4.834,9.739v0.871c0,0.105,0.056,0.204,0.14,0.266
			c0.086,0.062,0.196,0.081,0.297,0.051c0.275-0.083,0.614-0.188,0.81-0.247c0.152,0.183,0.379,0.302,0.638,0.302
			c0.245,0,0.469-0.112,0.62-0.285c0.196,0.059,0.544,0.164,0.823,0.248c0.101,0.03,0.211,0.01,0.297-0.052
			c0.083-0.062,0.136-0.161,0.136-0.266V9.751c0-0.111-0.059-0.214-0.152-0.276C8.35,9.415,8.229,9.403,8.128,9.447z"/>
		<path d="M21.154,4.665C21.154,2.093,19.062,0,16.489,0c-2.572,0-4.666,2.093-4.666,4.665c0,0.923,0.276,1.815,0.801,2.591
			l-0.358,2.636c-0.026,0.195,0.057,0.388,0.218,0.5c0.091,0.063,0.195,0.094,0.301,0.094c0.084,0,0.168-0.02,0.244-0.06
			l2.367-1.245c0.391,0.101,0.743,0.148,1.094,0.148C19.062,9.331,21.154,7.238,21.154,4.665z M16.489,8.283
			c-0.308,0-0.629-0.052-1.009-0.163c-0.131-0.038-0.273-0.024-0.392,0.04L13.44,9.027l0.249-1.833
			c0.018-0.135-0.016-0.273-0.099-0.382c-0.471-0.636-0.72-1.377-0.72-2.146c0-1.995,1.622-3.617,3.617-3.617
			c1.995,0,3.617,1.622,3.617,3.617C20.106,6.66,18.484,8.283,16.489,8.283z"/>
		<path d="M18.166,3.099h-3.354c-0.289,0-0.523,0.24-0.523,0.53s0.234,0.529,0.523,0.529h3.354c0.289,0,0.521-0.239,0.521-0.529
			S18.455,3.099,18.166,3.099z"/>
		<path d="M18.166,4.909h-3.354c-0.289,0-0.523,0.218-0.523,0.508c0,0.289,0.234,0.508,0.523,0.508h3.354
			c0.289,0,0.521-0.219,0.521-0.508C18.688,5.127,18.455,4.909,18.166,4.909z"/>
	</g>
</g>
</svg>